<?xml version="1.0" standalone="no"?>
<!DOCTYPE svg PUBLIC "-//W3C//DTD SVG 20010904//EN"
 "http://www.w3.org/TR/2001/REC-SVG-20010904/DTD/svg10.dtd">
<svg version="1.0" xmlns="http://www.w3.org/2000/svg"
 width="1120.000000pt" height="1120.000000pt" viewBox="0 0 1120.000000 1120.000000"
 preserveAspectRatio="xMidYMid meet">
<metadata>
Created by potrace 1.14, written by Peter Selinger 2001-2017
</metadata>
<g transform="translate(0.000000,1120.000000) scale(0.100000,-0.100000)"
fill="#000000" stroke="none">
<path d="M967 9458 c-27 -3 -68 -9 -92 -13 -45 -6 -185 -49 -220 -68 -11 -6
-26 -12 -32 -13 -7 -1 -35 -16 -63 -33 -28 -17 -53 -31 -56 -31 -26 0 -217
-174 -269 -245 -17 -22 -36 -46 -42 -53 -32 -33 -136 -248 -147 -302 -2 -8 -6
-22 -9 -30 -11 -30 -27 -122 -22 -130 3 -5 1 -11 -4 -14 -5 -3 -8 -72 -6 -153
3 -141 10 -189 48 -320 15 -54 101 -235 121 -256 6 -7 24 -31 39 -54 55 -80
254 -263 279 -255 4 1 8 -2 8 -7 0 -28 279 -141 386 -156 27 -4 60 -8 74 -11
59 -8 241 -3 296 10 12 2 37 7 55 10 55 9 159 45 238 83 79 39 174 99 179 114
2 5 9 9 16 9 6 0 19 8 27 18 9 9 29 29 45 43 26 23 80 81 125 137 27 32 119
191 119 205 0 7 4 17 8 23 16 17 51 129 69 214 17 87 22 259 10 351 -47 351
-270 660 -592 822 -68 34 -180 76 -220 82 -11 2 -31 6 -44 9 -80 18 -247 26
-324 14z"/>
<path d="M5537 9465 c-1 -2 -29 -5 -62 -9 -84 -9 -213 -41 -277 -70 -21 -9
-40 -16 -43 -16 -3 0 -22 -11 -43 -24 -20 -12 -41 -24 -47 -26 -65 -19 -242
-175 -328 -290 -39 -52 -273 -340 -357 -440 -21 -25 -49 -58 -62 -75 -12 -16
-27 -35 -33 -41 -5 -6 -23 -28 -40 -49 -16 -21 -44 -55 -60 -74 -17 -20 -48
-58 -70 -86 -51 -64 -76 -94 -95 -115 -8 -8 -28 -34 -44 -55 -16 -22 -35 -47
-43 -55 -7 -8 -31 -37 -54 -65 -22 -27 -50 -60 -60 -73 -10 -12 -19 -24 -19
-27 0 -2 -10 -15 -22 -27 -35 -36 -101 -117 -121 -149 -11 -16 -23 -29 -28
-29 -5 0 -9 -7 -9 -15 0 -8 -3 -15 -8 -15 -4 0 -27 -26 -52 -57 -54 -70 -79
-100 -102 -125 -10 -10 -18 -20 -18 -22 0 -4 -11 -18 -76 -95 -17 -20 -61 -74
-99 -121 -92 -115 -138 -170 -152 -186 -7 -7 -13 -15 -13 -19 0 -3 -10 -16
-22 -29 -13 -13 -36 -40 -53 -62 -16 -21 -38 -46 -47 -56 -10 -10 -18 -22 -18
-27 0 -5 -7 -12 -16 -15 -9 -4 -14 -9 -11 -12 3 -3 -7 -18 -21 -33 -15 -15
-38 -42 -52 -61 -14 -18 -30 -38 -35 -44 -9 -9 -120 -146 -150 -184 -5 -7 -20
-24 -32 -37 -13 -13 -23 -27 -23 -30 0 -4 -22 -31 -65 -79 -5 -6 -22 -27 -36
-46 -15 -19 -35 -45 -45 -56 -11 -12 -32 -39 -49 -60 -16 -21 -38 -46 -47 -56
-10 -10 -18 -22 -18 -27 0 -5 -3 -11 -7 -13 -5 -1 -28 -28 -53 -58 -25 -30
-54 -66 -65 -79 -11 -13 -28 -33 -38 -43 -9 -10 -15 -18 -12 -18 5 0 -17 -28
-41 -54 -6 -6 -41 -49 -78 -96 -38 -47 -73 -90 -80 -95 -6 -6 -15 -18 -21 -27
-8 -13 -193 -241 -310 -383 -44 -53 -172 -213 -210 -261 -16 -21 -57 -70 -89
-108 -32 -39 -93 -114 -134 -166 -42 -52 -81 -100 -87 -107 -21 -23 -75 -91
-200 -249 -16 -20 -36 -43 -42 -50 -7 -7 -13 -17 -13 -23 0 -6 -6 -11 -12 -11
-7 0 -24 -18 -37 -39 -13 -21 -35 -51 -50 -67 -15 -16 -33 -38 -41 -50 -8 -11
-31 -40 -50 -63 -47 -56 -98 -120 -135 -165 -16 -21 -35 -43 -40 -50 -6 -6
-55 -67 -109 -136 -54 -69 -104 -129 -110 -135 -20 -18 -106 -122 -106 -128 0
-6 -42 -72 -58 -92 -4 -5 -9 -13 -10 -17 -1 -5 -14 -34 -28 -65 -15 -31 -27
-62 -29 -67 -1 -6 -5 -18 -8 -26 -13 -35 -29 -93 -34 -123 -2 -18 -8 -49 -13
-70 -8 -39 -6 -296 3 -332 3 -11 10 -42 17 -70 32 -143 109 -302 207 -427 37
-47 197 -198 210 -198 2 0 19 -11 37 -25 18 -14 38 -25 44 -25 6 0 12 -4 14
-8 7 -18 208 -101 279 -116 13 -3 35 -7 49 -10 162 -36 403 -18 558 40 37 14
72 26 77 28 29 8 125 60 125 67 0 5 5 9 11 9 42 0 241 180 306 277 15 23 39
54 53 70 14 15 54 64 90 108 35 44 69 85 75 92 11 13 32 38 171 209 55 66 110
135 124 153 14 18 37 46 53 63 15 16 27 33 27 37 0 4 15 22 33 41 18 19 59 69
92 110 84 105 87 109 113 138 13 15 37 46 54 70 17 23 35 42 40 42 4 0 8 6 8
14 0 8 4 16 9 18 5 2 58 64 118 138 60 74 147 182 193 240 47 58 87 107 90
110 5 4 39 47 100 123 8 11 20 24 25 31 6 6 28 33 50 61 63 78 79 97 98 117 9
10 17 21 17 24 0 3 9 16 20 28 19 20 168 201 182 221 4 6 25 30 45 55 21 25
52 63 68 84 17 21 35 44 40 50 6 6 39 47 74 91 36 44 70 85 78 91 7 6 13 15
13 20 0 4 9 17 20 29 20 20 106 124 165 199 27 35 112 140 142 176 7 8 31 38
53 65 22 28 46 57 53 65 6 8 52 64 100 125 48 60 100 124 115 142 15 17 39 46
54 65 60 74 101 124 116 143 10 11 53 65 97 120 44 55 86 106 93 113 7 8 25
30 40 50 15 21 29 39 32 42 3 3 64 77 134 165 71 88 135 165 142 171 8 6 14
16 14 22 0 6 3 12 8 14 4 2 25 26 47 53 22 28 42 52 45 55 3 3 32 39 64 80 33
41 67 83 75 92 9 10 25 29 36 43 11 15 25 32 30 38 6 7 37 46 70 87 33 41 67
84 76 95 27 32 107 132 198 245 46 58 88 107 93 108 4 2 8 8 8 13 0 5 10 21
23 35 50 56 57 64 57 69 0 3 8 13 18 24 9 10 35 40 57 66 22 27 45 53 50 59
28 30 75 95 75 104 0 6 4 12 9 14 12 4 71 115 71 132 0 8 3 16 8 18 9 4 50
121 58 163 2 17 7 37 10 45 27 74 24 348 -6 460 -19 76 -22 86 -27 100 -3 8
-7 20 -8 26 -10 45 -120 240 -170 302 -21 26 -132 138 -161 162 -109 92 -315
195 -429 215 -11 2 -31 6 -45 9 -52 12 -264 28 -273 21z"/>
<path d="M10057 9465 c-1 -2 -28 -5 -60 -9 -111 -11 -249 -51 -347 -99 -25
-12 -47 -24 -50 -27 -3 -3 -21 -14 -40 -24 -30 -16 -61 -38 -128 -91 -72 -56
-212 -218 -212 -244 0 -6 -8 -15 -17 -20 -10 -6 -14 -11 -10 -11 5 0 -1 -13
-11 -28 -47 -65 -105 -235 -128 -372 -9 -54 -10 -240 -1 -295 10 -70 21 -120
29 -145 3 -8 11 -33 18 -55 22 -71 117 -257 150 -295 8 -10 24 -30 35 -44 99
-131 287 -265 460 -329 97 -36 134 -44 265 -63 35 -5 201 -5 225 -1 20 4 58
11 125 22 75 13 219 69 300 117 114 67 276 209 318 281 9 15 20 27 24 27 4 0
8 5 8 12 0 6 7 19 15 27 22 25 105 192 105 213 0 10 3 18 8 18 8 0 24 61 47
182 18 94 12 320 -10 403 -8 33 -18 71 -21 85 -15 67 -110 259 -153 309 -12
13 -21 28 -21 32 0 14 -200 209 -215 209 -7 0 -15 4 -17 8 -15 35 -243 147
-354 173 -51 12 -55 12 -139 24 -48 7 -192 14 -198 10z"/>
<path d="M8038 6955 c-2 -1 -34 -5 -73 -9 -169 -14 -380 -98 -525 -208 -81
-60 -180 -160 -220 -220 -14 -21 -28 -38 -32 -38 -5 0 -8 -5 -8 -10 0 -6 -13
-25 -29 -43 -34 -37 -93 -107 -136 -162 -16 -21 -35 -43 -40 -49 -12 -12 -174
-211 -293 -360 -40 -50 -80 -100 -90 -111 -10 -11 -45 -54 -78 -95 -32 -41
-66 -82 -74 -91 -18 -20 -59 -71 -97 -120 -15 -19 -35 -42 -43 -51 -8 -9 -24
-28 -34 -43 -11 -14 -28 -36 -39 -48 -10 -12 -28 -35 -40 -50 -12 -15 -31 -38
-42 -51 -11 -13 -27 -32 -35 -42 -114 -142 -186 -231 -195 -241 -5 -7 -21 -26
-35 -43 -14 -18 -34 -41 -45 -53 -11 -12 -24 -29 -30 -38 -14 -24 -176 -222
-192 -235 -7 -6 -13 -16 -13 -22 0 -6 -4 -12 -8 -14 -5 -1 -84 -97 -177 -213
-93 -115 -172 -212 -175 -215 -3 -3 -21 -25 -40 -50 -19 -25 -37 -47 -40 -50
-4 -3 -13 -14 -21 -26 -8 -12 -33 -43 -55 -70 -23 -27 -83 -101 -133 -164
-102 -129 -109 -137 -169 -205 -52 -59 -119 -161 -155 -237 -28 -57 -79 -198
-72 -198 2 0 -1 -15 -6 -32 -18 -61 -24 -123 -22 -258 1 -130 6 -164 46 -307
19 -66 96 -222 143 -288 47 -66 148 -173 204 -216 25 -19 47 -37 50 -40 6 -8
139 -89 145 -89 3 0 32 -13 65 -29 33 -16 60 -28 60 -26 0 2 19 -2 41 -11 23
-8 51 -16 63 -19 12 -2 32 -6 46 -10 107 -24 286 -24 415 0 93 18 249 73 295
105 14 10 27 17 30 17 5 -1 91 55 138 89 50 37 151 144 219 234 39 52 84 109
100 126 15 16 42 47 58 69 17 21 39 48 50 61 12 12 32 37 45 55 28 37 87 108
131 157 16 18 29 35 29 38 0 4 9 16 20 28 11 11 65 77 121 146 56 69 113 139
128 156 14 17 37 46 51 64 14 18 33 42 44 54 10 11 30 37 45 56 14 19 31 40
37 45 8 8 37 44 99 123 5 7 17 21 25 30 9 9 33 40 55 67 22 28 42 52 45 55 3
3 21 25 40 50 19 25 39 50 45 56 5 6 21 25 35 43 14 18 32 40 40 49 9 10 33
40 55 67 22 28 42 52 45 55 3 3 17 21 32 40 15 19 38 49 52 65 13 17 34 41 45
55 11 14 46 57 78 96 32 38 72 87 88 109 32 40 86 107 114 140 9 11 43 54 75
95 33 41 67 82 75 91 9 9 25 29 36 44 11 16 25 33 30 39 6 6 68 83 138 171 71
88 138 172 150 187 12 14 38 47 57 72 19 26 57 69 83 98 26 28 70 85 97 127
28 42 55 82 60 89 6 6 9 12 6 12 -3 0 9 29 25 65 28 59 53 133 65 195 3 14 7
32 9 40 16 52 23 255 11 316 -3 17 -8 46 -10 65 -9 69 -43 184 -73 242 -7 15
-11 27 -7 27 4 0 2 6 -4 13 -5 6 -19 28 -30 48 -40 73 -47 84 -52 89 -3 3 -24
30 -47 60 -44 59 -175 190 -189 190 -5 1 -25 14 -44 30 -19 17 -40 30 -47 30
-7 0 -13 4 -13 9 0 5 -8 11 -17 14 -10 3 -29 12 -43 21 -30 17 -118 56 -139
62 -9 2 -50 13 -91 24 -41 11 -102 23 -135 26 -74 7 -174 12 -177 9z"/>
</g>
</svg>
