<svg width="161" height="50" viewBox="0 0 161 50" fill="none" xmlns="http://www.w3.org/2000/svg">
<path d="M84.9449 12.6072C84.9449 14.4074 83.4954 15.86 81.6921 15.86C79.8888 15.86 78.4393 14.4105 78.4393 12.6072C78.4393 10.8071 79.845 9.35445 81.6921 9.35445C83.5361 9.40141 84.9449 10.8509 84.9449 12.6072ZM71.4986 19.1535C71.4986 19.4603 71.4986 19.9455 71.4986 19.9455C71.4986 19.9455 69.9614 17.9231 66.621 17.9231C61.1736 17.9231 56.9097 22.0963 56.9097 27.8536C56.9097 33.5671 61.1267 37.7841 66.621 37.7841C69.9614 37.7841 71.4986 35.7179 71.4986 35.7179V36.5538C71.4986 36.9482 71.8054 37.2582 72.203 37.2582H76.2447V18.4522C76.2447 18.4522 72.5536 18.4522 72.203 18.4522C71.8054 18.4522 71.4986 18.8028 71.4986 19.1535ZM71.4986 31.2379C70.7504 32.3367 69.257 33.3041 67.4569 33.3041C64.248 33.3041 61.7873 31.2817 61.7873 27.9006C61.7873 24.4725 64.248 22.497 67.4569 22.497C69.2132 22.497 70.7973 23.5082 71.4986 24.5633V31.2379ZM79.2752 18.4522H84.0651V37.302H79.2752V18.4522ZM151.115 17.9669C147.818 17.9669 146.237 19.9894 146.237 19.9894V9.40141H141.447V37.302C141.447 37.302 145.138 37.302 145.489 37.302C145.883 37.302 146.193 36.9514 146.193 36.5976V35.7617C146.193 35.7617 147.731 37.8279 151.071 37.8279C156.518 37.8279 160.782 33.6109 160.782 27.8974C160.782 22.1433 156.518 17.9669 151.115 17.9669ZM150.323 33.2165C148.479 33.2165 147.026 32.2491 146.281 31.1502V24.4287C147.029 23.4174 148.654 22.3624 150.323 22.3624C153.532 22.3624 155.992 24.3848 155.992 27.7659C155.992 31.2379 153.532 33.2165 150.323 33.2165ZM138.943 26.1411V37.3458H134.153V26.6702C134.153 23.5521 133.142 22.3217 130.462 22.3217C129.012 22.3217 127.519 23.0699 126.552 24.1657V37.302H121.762V18.4522H125.584C125.979 18.4522 126.289 18.8028 126.289 19.1566V19.9487C127.694 18.4992 129.541 17.9262 131.385 17.9262C133.495 17.9262 135.252 18.5399 136.657 19.7264C138.285 21.1759 138.943 22.976 138.943 26.1411ZM110.031 17.9669C106.734 17.9669 105.153 19.9894 105.153 19.9894V9.40141H100.363V37.302C100.363 37.302 104.054 37.302 104.405 37.302C104.8 37.302 105.11 36.9514 105.11 36.5976V35.7617C105.11 35.7617 106.647 37.8279 109.987 37.8279C115.435 37.8279 119.698 33.6109 119.698 27.8974C119.742 22.1433 115.481 17.9669 110.031 17.9669ZM109.242 33.2165C107.398 33.2165 105.945 32.2491 105.2 31.1502V24.4287C105.949 23.4174 107.573 22.3624 109.242 22.3624C112.451 22.3624 114.912 24.3848 114.912 27.7659C114.909 31.2379 112.448 33.2165 109.242 33.2165ZM96.1902 17.9669C97.6397 17.9669 98.388 18.2299 98.388 18.2299V22.6692C98.388 22.6692 94.3901 21.3074 91.8856 24.1625V37.3427H87.0956V18.4491C87.0956 18.4491 90.7867 18.4491 91.1373 18.4491C91.5318 18.4491 91.8417 18.7997 91.8417 19.1535V19.9455C92.7653 18.8905 94.6969 17.9669 96.1902 17.9669ZM46.2341 35.5864C45.9711 34.9728 45.7519 34.3122 45.4858 33.7862C45.0914 32.8627 44.6938 32.0299 44.3431 31.2379L44.2993 31.194C40.8274 23.6804 37.1363 16.0791 33.2261 8.56553L33.0946 8.25872C32.7002 7.51048 32.3026 6.72156 31.9081 5.88567C31.426 4.96212 30.8969 4.0417 30.108 3.11815C28.527 1.09573 26.1978 0 23.737 0C21.2325 0 18.9909 1.09886 17.3223 2.98666C16.5741 3.91021 16.0043 4.83063 15.5222 5.75418C15.1277 6.54624 14.7301 7.33517 14.3356 8.12723L14.2041 8.43404C10.3378 15.9477 6.60287 23.5489 3.13095 31.0625L3.08712 31.1502C2.73648 31.9423 2.33889 32.8189 1.94442 33.6986C1.68145 34.2684 1.4623 34.8413 1.19619 35.4987C0.535619 37.3427 0.360301 39.1021 0.582579 40.9023C1.15236 44.681 3.6569 47.7991 7.08499 49.2079C8.403 49.7777 9.72102 50 11.1267 50C11.5212 50 12.0502 49.9562 12.4447 49.9123C14.1134 49.6932 15.7851 49.1641 17.4538 48.1999C19.52 47.0572 21.4517 45.3885 23.6494 42.9716C25.8471 45.3885 27.8664 47.0133 29.845 48.1999C31.5136 49.1672 33.1854 49.6932 34.8541 49.9123C35.2485 49.9562 35.7776 50 36.1721 50C37.5778 50 38.9834 49.737 40.2138 49.2079C43.7295 47.8023 46.1902 44.5933 46.7162 40.9023C47.1107 39.1898 46.8915 37.4335 46.2341 35.5864ZM23.6494 38.1786C20.9257 34.7505 19.2101 31.5447 18.5965 28.8648C18.3335 27.7221 18.2897 26.7109 18.465 25.7905C18.5526 24.9984 18.8595 24.2972 19.2571 23.6804C20.2244 22.3186 21.8054 21.4827 23.6494 21.4827C25.4934 21.4827 27.1651 22.2747 28.0417 23.6804C28.4362 24.294 28.7461 24.9984 28.8338 25.7905C28.9653 26.714 28.9214 27.7253 28.7023 28.8648C28.1294 31.5447 26.3731 34.7536 23.6494 38.1786ZM43.6419 40.5516C43.2912 43.1438 41.5318 45.4292 39.0711 46.3966C37.8846 46.8787 36.5666 47.0572 35.2485 46.8787C33.9744 46.7472 32.744 46.3089 31.426 45.5607C29.6258 44.5495 27.8226 43.0123 25.7125 40.6831C29.0091 36.6414 31.0284 32.9065 31.7766 29.6099C32.1273 28.0728 32.1711 26.6671 32.0396 25.3491C31.8204 24.0749 31.379 22.9322 30.6777 21.921C29.1406 19.6794 26.5046 18.3614 23.6024 18.3614C20.7003 18.3614 18.1112 19.7232 16.5271 21.921C15.8227 22.9322 15.3844 24.0749 15.1653 25.3491C14.9461 26.6671 15.0338 28.1166 15.4282 29.6099C16.1765 32.9065 18.2396 36.6852 21.4924 40.7269C19.4261 43.0123 17.5821 44.5933 15.7789 45.6045C14.4609 46.3528 13.2305 46.7472 11.9563 46.9225C10.5945 47.054 9.32029 46.8787 8.13377 46.4404C5.67306 45.4292 3.91675 43.1877 3.56298 40.5955C3.43149 39.3213 3.51915 38.0909 4.00128 36.6852C4.13276 36.2031 4.39574 35.674 4.66185 35.1042C5.01248 34.3122 5.41008 33.4356 5.80454 32.5997L5.84837 32.5121C9.32029 25.0423 13.0114 17.441 16.8777 10.015L17.0092 9.70822C17.4037 8.95999 17.8013 8.17106 18.1958 7.42283C18.5902 6.63077 19.0316 5.88567 19.6014 5.2251C20.6565 4.03857 22.0621 3.38113 23.5993 3.38113C25.1365 3.38113 26.5421 4.0417 27.5972 5.2251C28.167 5.88567 28.6084 6.63077 29.0028 7.42283C29.3973 8.17106 29.7949 8.95999 30.1894 9.70822L30.3209 10.015C34.1434 17.4848 37.8345 25.0861 41.3064 32.5559V32.5997C41.7009 33.3918 42.0546 34.3122 42.4491 35.1042C42.7121 35.7179 42.9312 36.2031 43.1097 36.6852C43.6857 38.0033 43.861 39.2336 43.6419 40.5516Z" fill="#FF5A5F"/>
</svg>
