<svg width="25" height="20" viewBox="0 0 25 20" fill="none" xmlns="http://www.w3.org/2000/svg">
<path fill-rule="evenodd" clip-rule="evenodd" d="M0.46875 18.75C0.46875 18.4599 0.583984 18.1817 0.789102 17.9766C0.99422 17.7715 1.27242 17.6562 1.5625 17.6562H23.4375C23.7276 17.6562 24.0058 17.7715 24.2109 17.9766C24.416 18.1817 24.5312 18.4599 24.5312 18.75C24.5312 19.0401 24.416 19.3183 24.2109 19.5234C24.0058 19.7285 23.7276 19.8438 23.4375 19.8438H1.5625C1.27242 19.8438 0.99422 19.7285 0.789102 19.5234C0.583984 19.3183 0.46875 19.0401 0.46875 18.75ZM0.46875 10C0.46875 9.70992 0.583984 9.43172 0.789102 9.2266C0.99422 9.02148 1.27242 8.90625 1.5625 8.90625H23.4375C23.7276 8.90625 24.0058 9.02148 24.2109 9.2266C24.416 9.43172 24.5312 9.70992 24.5312 10C24.5312 10.2901 24.416 10.5683 24.2109 10.7734C24.0058 10.9785 23.7276 11.0938 23.4375 11.0938H1.5625C1.27242 11.0938 0.99422 10.9785 0.789102 10.7734C0.583984 10.5683 0.46875 10.2901 0.46875 10ZM0.46875 1.25C0.46875 0.959919 0.583984 0.68172 0.789102 0.476602C0.99422 0.271484 1.27242 0.15625 1.5625 0.15625H23.4375C23.7276 0.15625 24.0058 0.271484 24.2109 0.476602C24.416 0.68172 24.5312 0.959919 24.5312 1.25C24.5312 1.54008 24.416 1.81828 24.2109 2.0234C24.0058 2.22852 23.7276 2.34375 23.4375 2.34375H1.5625C1.27242 2.34375 0.99422 2.22852 0.789102 2.0234C0.583984 1.81828 0.46875 1.54008 0.46875 1.25Z" fill="white"/>
</svg>
