<svg width="198" height="38" viewBox="0 0 198 38" fill="none" xmlns="http://www.w3.org/2000/svg">
<path d="M13.2211 37.4189H5.82343V18.9704H0.782227V12.9662H5.82343V8.69432C5.82343 3.6316 8.05081 0 15.4324 0C16.9926 0 19.446 0.31205 19.446 0.31205V5.89127H16.8689C14.2487 5.89127 13.2211 6.68753 13.2211 8.89339V12.9662H19.3437L18.8003 18.9704H13.2211V37.4189ZM30.2009 12.4873C30.0933 12.4873 29.9803 12.4927 29.8727 12.4927C23.013 12.4927 19.871 17.6523 19.871 24.98C19.871 34.207 23.9438 37.9032 29.9265 37.9032C33.3483 37.9032 35.5972 36.4613 36.9637 33.7766V37.4243H44.001V12.9715H36.9637V16.7323C35.85 14.3112 33.5366 12.5196 30.2009 12.4873ZM31.9925 18.2656C34.8762 18.2656 36.6033 20.2778 36.6033 23.6942L36.6086 27.1859C36.6086 29.4886 35.1775 32.1841 31.9925 32.1841C27.0912 32.1841 27.2203 26.89 27.2203 25.1253C27.2203 19.1964 29.8296 18.2656 31.9925 18.2656ZM46.8471 25.2006C46.8471 22.2308 46.7072 12.5088 59.372 12.5088C64.4563 12.5088 66.5814 14.1283 66.5814 14.1283L64.8759 19.4223C64.8759 19.4223 62.7562 18.2549 59.9908 18.2549C56.4506 18.2549 54.1963 20.3047 54.1963 23.9148L54.2017 26.5026C54.2017 29.9728 56.3807 32.2863 60.0015 32.2863C62.5194 32.2863 64.8383 31.108 64.8383 31.108L66.5384 36.2891C66.5384 36.2891 64.5962 37.9139 59.4097 37.9139C47.342 37.9085 46.8471 29.1873 46.8471 25.2006ZM107.847 12.4927C114.707 12.4927 117.897 17.6523 117.897 24.98C117.897 34.207 113.825 37.9032 107.842 37.9032C104.42 37.9032 101.891 36.4613 100.525 33.7766V37.4243L93.5736 37.4189V0.742463L100.95 0.096847V16.3987C102.015 13.5472 105.512 12.4927 107.847 12.4927ZM105.776 18.2656C102.892 18.2656 100.95 20.2778 100.95 23.6942L100.944 27.1859C100.939 29.4886 102.289 32.1841 105.776 32.1841C110.677 32.1841 110.548 26.89 110.548 25.1253C110.548 19.1964 107.939 18.2656 105.776 18.2656ZM79.3808 12.5142C71.6011 12.5142 67.4907 16.7592 67.4907 24.2968V25.6956C67.4907 35.4821 73.2582 38 80.1394 38C86.8269 38 89.8506 36.1277 89.8506 36.1277L88.4679 31.1457C88.4679 31.1457 84.9062 32.6629 81.0218 32.6629C76.992 32.6629 75.2596 31.6353 74.8131 27.7616H90.437V23.7641C90.4424 15.5971 85.8262 12.5142 79.3808 12.5142ZM79.5691 17.5016C82.2646 17.5016 84.0077 19.1533 83.9109 22.984H74.8292C74.9852 18.9543 76.8683 17.5016 79.5691 17.5016ZM132.607 12.482C124.617 12.482 120.41 16.9851 120.41 25.0554C120.41 36.1277 127.662 37.9139 132.623 37.9139C139.886 37.9139 144.717 34.0026 144.717 25.1576C144.712 15.9521 139.283 12.482 132.607 12.482ZM132.504 18.2871C136.018 18.2871 137.411 20.918 137.411 23.9094V26.4811C137.411 30.1073 135.463 32.2056 132.494 32.2056C129.712 32.2056 127.759 30.2418 127.759 26.4811V23.9094C127.759 19.8958 130.083 18.2871 132.504 18.2871ZM159.411 12.482C151.421 12.482 147.214 16.9851 147.214 25.0554C147.214 36.1277 154.466 37.9139 159.427 37.9139C166.69 37.9139 171.521 34.0026 171.521 25.1576C171.516 15.9521 166.087 12.482 159.411 12.482ZM159.314 18.2871C162.827 18.2871 164.22 20.918 164.22 23.9094V26.4811C164.22 30.1073 162.273 32.2056 159.303 32.2056C156.521 32.2056 154.568 30.2418 154.568 26.4811V23.9094C154.568 19.8958 156.893 18.2871 159.314 18.2871ZM174.308 37.4189V0.742463L181.706 0.096847V24.6787L189.05 12.9662H196.867L189.211 25.0984L197.163 37.4189H189.324L181.706 25.4589V37.4189H174.308Z" fill="#1877F2"/>
</svg>
