<svg width="19" height="19" viewBox="0 0 19 19" fill="none" xmlns="http://www.w3.org/2000/svg">
<path d="M14.406 3.71362C13.823 3.71362 13.3503 4.18624 13.3503 4.76874C13.3503 5.35175 13.823 5.82436 14.406 5.82436C14.9885 5.82436 15.4611 5.35175 15.4611 4.76874C15.4611 4.18624 14.9885 3.71362 14.406 3.71362Z" fill="white"/>
<path d="M9.7141 12.3392C8.14822 12.3392 6.87434 11.0654 6.87434 9.49999C6.87434 7.93411 8.14822 6.66025 9.7141 6.66025C11.2795 6.66025 12.5533 7.93411 12.5533 9.49999C12.5533 11.0654 11.2795 12.3392 9.7141 12.3392ZM9.7141 5.06689C7.26964 5.06689 5.28101 7.05553 5.28101 9.49999C5.28101 11.9439 7.26964 13.9326 9.7141 13.9326C12.1581 13.9326 14.1467 11.9439 14.1467 9.49999C14.1467 7.05553 12.1581 5.06689 9.7141 5.06689Z" fill="white"/>
<path d="M6.04718 2.19357C3.99953 2.19357 2.33393 3.85917 2.33393 5.90682V13.0932C2.33393 15.1408 3.99953 16.8064 6.04718 16.8064H13.2335C15.2812 16.8064 16.9473 15.1408 16.9473 13.0932V5.90682C16.9473 3.85917 15.2812 2.19357 13.2335 2.19357H6.04718ZM13.2335 18.5H6.04718C3.0655 18.5 0.640869 16.0744 0.640869 13.0932V5.90682C0.640869 2.92513 3.0655 0.5 6.04718 0.5H13.2335C16.2147 0.5 18.6404 2.92513 18.6404 5.90682V13.0932C18.6404 16.0744 16.2147 18.5 13.2335 18.5Z" fill="white"/>
</svg>
