<svg width="15" height="19" viewBox="0 0 15 19" fill="none" xmlns="http://www.w3.org/2000/svg">
<path fill-rule="evenodd" clip-rule="evenodd" d="M6.33837 12.2417C6.3231 12.2936 6.30936 12.3368 6.29766 12.3806C5.63629 14.9706 5.56304 15.546 4.88387 16.7497C4.55929 17.321 4.19453 17.8628 3.79059 18.3817C3.7448 18.4402 3.70258 18.5155 3.61151 18.4972C3.5118 18.4758 3.50415 18.3863 3.49296 18.3064C3.38409 17.5194 3.32458 16.7298 3.35053 15.9357C3.38461 14.9004 3.51279 14.5453 4.84723 8.93284C4.86707 8.84737 4.84519 8.77666 4.8167 8.69882C4.49721 7.83752 4.43414 6.96299 4.71293 6.07676C5.31681 4.16236 7.48709 4.01584 7.86661 5.59549C8.10013 6.57227 7.48202 7.85023 7.00736 9.7397C6.61411 11.299 8.44912 12.407 10.0181 11.269C11.4639 10.22 12.0256 7.70423 11.9188 5.92159C11.7087 2.36752 7.81168 1.59932 5.33818 2.74399C2.50397 4.05451 1.85938 7.56839 3.13938 9.17398C3.30116 9.37849 3.42633 9.50314 3.37292 9.71071C3.2905 10.0317 3.21775 10.3558 3.12923 10.6758C3.06309 10.9134 2.86363 11.0004 2.623 10.9022C2.1514 10.7114 1.75815 10.4112 1.43917 10.0154C0.352499 8.66982 0.0416396 6.00706 1.47833 3.75384C3.07069 1.25642 6.03262 0.246569 8.73608 0.553341C11.9656 0.920144 14.0066 3.12707 14.3892 5.63008C14.5632 6.77069 14.438 9.5825 12.8375 11.5702C10.9954 13.8539 8.01008 14.005 6.63292 12.6034C6.5271 12.4961 6.44215 12.3699 6.33837 12.2417Z" fill="white"/>
</svg>
