<svg width="167" height="50" viewBox="0 0 167 50" fill="none" xmlns="http://www.w3.org/2000/svg">
<path d="M25.1631 0C11.3605 0 0.163086 11.1974 0.163086 25C0.163086 38.8026 11.3605 50 25.1631 50C38.9656 50 50.1631 38.8026 50.1631 25C50.2088 11.1974 39.0113 0 25.1631 0ZM36.6347 36.0603C36.1777 36.7916 35.2179 37.0201 34.4867 36.5631C28.5909 32.9525 21.2326 32.1755 12.5031 34.1408C11.6805 34.3236 10.8121 33.8208 10.6293 32.9525C10.4464 32.1298 10.9492 31.2614 11.8176 31.0786C21.3697 28.8848 29.5049 29.8446 36.132 33.8665C36.8633 34.3693 37.0918 35.3291 36.6347 36.0603ZM39.6969 29.2504C39.1485 30.1645 37.9145 30.4388 37.0004 29.8903C30.2819 25.777 20.0443 24.543 12.0918 26.9653C11.0406 27.2852 9.98941 26.691 9.66949 25.6856C9.34956 24.6344 9.94371 23.5832 10.9492 23.2632C20.0443 20.521 31.3331 21.8464 39.0571 26.5996C39.9711 27.1481 40.2911 28.3364 39.6969 29.2504ZM39.9711 22.1664C31.9273 17.3675 18.6274 16.9561 10.9035 19.287C9.66948 19.6526 8.34407 18.9671 7.97844 17.7331C7.61281 16.4991 8.29837 15.1737 9.53237 14.808C18.3532 12.1115 33.0698 12.66 42.3477 18.1444C43.4446 18.7843 43.8102 20.2468 43.1704 21.3437C42.5305 22.4406 41.068 22.8062 39.9711 22.1664ZM68.2161 23.0804C63.8742 22.0292 63.143 21.3437 63.143 19.7898C63.143 18.3729 64.5141 17.3675 66.5251 17.3675C68.4903 17.3675 70.4099 18.0987 72.4209 19.6069C72.4666 19.6526 72.558 19.6526 72.6494 19.6526C72.7408 19.6526 72.7865 19.6069 72.8322 19.5155L74.9346 16.5448C75.026 16.4077 74.9803 16.2706 74.8889 16.1792C72.4666 14.2596 69.77 13.2998 66.5708 13.2998C61.909 13.2998 58.664 16.0877 58.664 20.1097C58.664 24.4058 61.4976 25.9141 66.3422 27.1024C70.4556 28.0622 71.1868 28.8391 71.1868 30.2559C71.1868 31.8556 69.77 32.8154 67.4848 32.8154C64.9711 32.8154 62.9144 31.947 60.5836 29.9817C60.5378 29.936 60.4464 29.8903 60.355 29.8903C60.2636 29.8903 60.2179 29.936 60.1722 29.9817L57.7956 32.8154C57.7042 32.9525 57.7042 33.0896 57.8413 33.2267C60.5378 35.6033 63.8285 36.883 67.3477 36.883C72.3751 36.883 75.6201 34.1408 75.6201 29.8903C75.6201 26.3254 73.472 24.3601 68.2161 23.0804ZM87.0004 18.83C84.8066 18.83 83.0241 19.6983 81.5616 21.4351V19.4698C81.5616 19.3327 81.4245 19.1956 81.2874 19.1956H77.4026C77.2655 19.1956 77.1283 19.3327 77.1283 19.4698V41.4534C77.1283 41.5905 77.2655 41.7276 77.4026 41.7276H81.2874C81.4245 41.7276 81.5616 41.5905 81.5616 41.4534V34.5064C83.0241 36.1517 84.8066 36.9744 87.0004 36.9744C91.068 36.9744 95.1357 33.8665 95.1357 27.925C95.1357 21.9378 91.068 18.83 87.0004 18.83ZM90.6567 27.8793C90.6567 30.8958 88.7828 33.0439 86.132 33.0439C83.4812 33.0439 81.4702 30.8501 81.4702 27.8793C81.4702 24.9543 83.4812 22.7148 86.132 22.7148C88.7371 22.7605 90.6567 24.9086 90.6567 27.8793ZM105.648 18.83C100.437 18.83 96.3697 22.8519 96.3697 27.9707C96.3697 33.0439 100.437 37.0201 105.602 37.0201C110.812 37.0201 114.925 32.9982 114.925 27.925C114.925 22.8062 110.858 18.83 105.648 18.83ZM105.648 33.0896C102.86 33.0896 100.803 30.8501 100.803 27.925C100.803 24.9543 102.814 22.8062 105.602 22.8062C108.39 22.8062 110.492 25.0457 110.492 27.9707C110.492 30.9415 108.435 33.0896 105.648 33.0896ZM126.031 19.1499H121.781V14.808C121.781 14.6709 121.644 14.5338 121.507 14.5338H117.622C117.485 14.5338 117.348 14.6709 117.348 14.808V19.1499H115.474C115.337 19.1499 115.2 19.287 115.2 19.4241V22.7605C115.2 22.8976 115.337 23.0347 115.474 23.0347H117.348V31.6271C117.348 35.1005 119.084 36.883 122.512 36.883C123.883 36.883 125.026 36.6088 126.123 35.9689C126.214 35.9232 126.26 35.8318 126.26 35.7404V32.5868C126.26 32.4954 126.214 32.404 126.123 32.3583C126.031 32.3126 125.94 32.3126 125.849 32.3583C125.117 32.7239 124.386 32.9068 123.563 32.9068C122.329 32.9068 121.781 32.3583 121.781 31.0786V23.0804H126.031C126.169 23.0804 126.306 22.9433 126.306 22.8062V19.4698C126.351 19.287 126.214 19.1956 126.031 19.1499ZM140.885 19.1956V18.6472C140.885 17.0932 141.479 16.362 142.85 16.362C143.673 16.362 144.313 16.5448 145.044 16.7733C145.136 16.819 145.227 16.7733 145.318 16.7276C145.41 16.6819 145.456 16.5905 145.456 16.4991V13.2541C145.456 13.117 145.364 13.0256 145.273 12.9799C144.496 12.7514 143.536 12.5228 142.073 12.5228C138.509 12.5228 136.635 14.5338 136.635 18.3272V19.1499H134.761C134.624 19.1499 134.487 19.287 134.487 19.4241V22.7605C134.487 22.8976 134.624 23.0347 134.761 23.0347H136.635V36.2888C136.635 36.426 136.772 36.5631 136.909 36.5631H140.794C140.931 36.5631 141.068 36.426 141.068 36.2888V23.0347H144.679L150.209 36.2888C149.569 37.66 148.975 37.9799 148.106 37.9799C147.421 37.9799 146.69 37.7971 145.958 37.3857C145.867 37.34 145.821 37.34 145.73 37.3857C145.638 37.4314 145.593 37.4771 145.547 37.5228L144.222 40.4022C144.176 40.5393 144.222 40.6764 144.359 40.7678C145.73 41.4991 146.964 41.819 148.472 41.819C151.306 41.819 152.905 40.4936 154.276 36.9287L160.995 19.6069C161.041 19.5155 161.041 19.4241 160.949 19.3327C160.903 19.2413 160.812 19.1956 160.721 19.1956H156.699C156.562 19.1956 156.47 19.287 156.424 19.3784L152.311 31.17L147.786 19.3784C147.741 19.287 147.649 19.1956 147.512 19.1956H140.885ZM132.293 19.1499H128.408C128.271 19.1499 128.134 19.287 128.134 19.4241V36.2888C128.134 36.426 128.271 36.5631 128.408 36.5631H132.293C132.43 36.5631 132.567 36.426 132.567 36.2888V19.4241C132.567 19.287 132.43 19.1499 132.293 19.1499ZM130.373 11.4717C128.819 11.4717 127.585 12.7057 127.585 14.2596C127.585 15.8135 128.819 17.0475 130.373 17.0475C131.927 17.0475 133.161 15.8135 133.161 14.2596C133.116 12.7514 131.882 11.4717 130.373 11.4717ZM164.24 24.5887C162.732 24.5887 161.498 23.3547 161.498 21.8464C161.498 20.3382 162.686 19.1042 164.24 19.1042C165.748 19.1042 166.982 20.3382 166.982 21.8464C166.982 23.3547 165.794 24.5887 164.24 24.5887ZM164.24 19.4241C162.823 19.4241 161.772 20.521 161.772 21.8921C161.772 23.2632 162.823 24.3601 164.194 24.3601C165.611 24.3601 166.662 23.2632 166.662 21.8921C166.708 20.521 165.657 19.4241 164.24 19.4241ZM164.88 22.1207L165.657 23.2175H165.017L164.331 22.2121H163.737V23.2175H163.189V20.3382H164.468C165.154 20.3382 165.565 20.6581 165.565 21.2523C165.52 21.755 165.245 22.0292 164.88 22.1207ZM164.423 20.8409H163.737V21.755H164.423C164.788 21.755 164.971 21.5722 164.971 21.298C164.971 21.0238 164.743 20.8409 164.423 20.8409Z" fill="#1ED760"/>
</svg>
