<svg width="16" height="19" viewBox="0 0 16 19" fill="none" xmlns="http://www.w3.org/2000/svg">
<path d="M15.849 7.78289C15.7019 7.79686 15.5542 7.80434 15.4061 7.80534C13.785 7.80534 12.2737 6.98832 11.3858 5.6321V13.0312C11.3858 16.0519 8.93672 18.5 5.91702 18.5C2.89632 18.5 0.448242 16.0519 0.448242 13.0312C0.448242 10.011 2.89632 7.56293 5.91702 7.56293C6.03075 7.56293 6.14248 7.57291 6.2547 7.57989V10.2749C6.14248 10.2614 6.03224 10.241 5.91702 10.241C4.37525 10.241 3.12576 11.4909 3.12576 13.0317C3.12576 14.5735 4.37525 15.823 5.91702 15.823C7.45879 15.823 8.82001 14.6084 8.82001 13.0666L8.84744 0.5H11.4257C11.6686 2.81191 13.5326 4.61805 15.8515 4.78764V7.78289" fill="white"/>
</svg>
