<svg width="23" height="19" viewBox="0 0 23 19" fill="none" xmlns="http://www.w3.org/2000/svg">
<path d="M22.4201 2.65762C21.7252 2.97202 20.9575 3.16229 20.2081 3.28795C20.5637 3.22842 21.0862 2.58436 21.2958 2.32389C21.6153 1.92707 21.8803 1.47428 22.0294 0.985381C22.0487 0.947225 22.0635 0.899404 22.0248 0.870406C21.977 0.851583 21.9459 0.861255 21.9078 0.880079C21.0709 1.32828 20.2061 1.65336 19.2852 1.88382C19.2089 1.90265 19.1519 1.88382 19.1041 1.83549C19.0283 1.74951 18.9561 1.66812 18.8752 1.60147C18.488 1.27232 18.0729 1.01387 17.6048 0.823092C16.9903 0.572791 16.3188 0.46647 15.6569 0.509204C15.0123 0.55143 14.3799 0.732542 13.8086 1.03117C13.2358 1.33031 12.7245 1.74697 12.317 2.2491C11.8963 2.76903 11.5859 3.38207 11.4267 4.03275C11.2741 4.66053 11.2863 5.2812 11.3799 5.9156C11.3941 6.02091 11.3845 6.03515 11.2893 6.02091C7.68795 5.4847 4.70265 4.19656 2.27901 1.43461C2.1737 1.31454 2.11673 1.31454 2.03075 1.44376C0.970027 3.03357 1.48435 5.58695 2.80911 6.84202C2.98615 7.0099 3.16729 7.17677 3.36316 7.32939C3.29142 7.34414 2.41027 7.24901 1.62426 6.84202C1.51946 6.77537 1.46605 6.81404 1.4569 6.93308C1.44723 7.10504 1.46197 7.26326 1.48537 7.44946C1.68887 9.06064 2.80506 10.5507 4.33332 11.1327C4.51443 11.2091 4.71539 11.2757 4.91074 11.3093C4.56277 11.3856 4.20411 11.44 3.20545 11.3617C3.08132 11.3383 3.03399 11.4003 3.08131 11.5199C3.83221 13.5645 5.45101 14.1735 6.66436 14.5199C6.82665 14.5484 6.98947 14.5484 7.15226 14.5866C7.14209 14.6013 7.1324 14.6013 7.12273 14.6156C6.72083 15.2286 5.32588 15.685 4.67622 15.9119C3.49492 16.325 2.20831 16.5107 0.959862 16.3875C0.760435 16.358 0.718213 16.3606 0.664286 16.3875C0.609342 16.4216 0.656655 16.4694 0.721265 16.5213C0.974618 16.6887 1.23254 16.8368 1.49556 16.9802C2.28817 17.4004 3.11488 17.7352 3.97974 17.9738C8.44395 19.2065 13.4723 18.3004 16.8244 14.9702C19.4567 12.3547 20.3795 8.74776 20.3795 5.13671C20.3795 4.99528 20.5464 4.91744 20.6451 4.84266C21.3304 4.32832 21.8829 3.71224 22.3936 3.02493C22.5086 2.87027 22.5096 2.73291 22.5096 2.67644C22.5096 2.66677 22.5096 2.65762 22.5096 2.65762C22.5096 2.59962 22.5086 2.61743 22.4201 2.65762Z" fill="white"/>
</svg>
